<svg width="75" height="29" viewBox="0 0 75 29" fill="none" xmlns="http://www.w3.org/2000/svg">
<path d="M30.7861 14.7046H28.0908V19.1211H32.1704L32.6978 17.8247H33.2544L33.0127 20H25.6006V19.3774L26.7139 19.209V9.74609L25.6006 9.57764V8.95508H32.6904L32.8589 11.1304H32.2144L31.8188 9.84131H28.0908V13.8257H30.7861L31.0059 13.0493H31.5259V15.4736H31.0059L30.7861 14.7046ZM39.417 13.8257C39.6465 14.1968 39.7612 14.6582 39.7612 15.21C39.7612 15.9863 39.3706 16.6748 38.5894 17.2754C38.2476 17.5391 37.8472 17.7588 37.3882 17.9346L36.2676 18.3594C35.7305 18.5596 35.4253 18.6987 35.3521 18.7769C35.2837 18.8501 35.2495 18.9111 35.2495 18.96C35.2495 19.0039 35.2739 19.0479 35.3228 19.0918C35.3716 19.1357 35.4521 19.1772 35.5645 19.2163C35.833 19.3091 36.209 19.3555 36.6924 19.3555C37.1758 19.3555 37.6274 19.3823 38.0474 19.436C38.4673 19.4849 38.8384 19.5801 39.1606 19.7217C39.8638 20.0391 40.2153 20.5811 40.2153 21.3477C40.2153 21.8652 40.0127 22.3462 39.6074 22.7905C39.0459 23.4009 38.25 23.8086 37.2197 24.0137C36.9121 24.0723 36.5728 24.1016 36.2017 24.1016C35.8306 24.1016 35.4521 24.0625 35.0664 23.9844C34.6807 23.9062 34.3438 23.7842 34.0557 23.6182C33.4453 23.2715 33.1401 22.7515 33.1401 22.0581C33.1401 21.521 33.3672 21.1084 33.8213 20.8203L34.2974 20.5347C34.4292 20.4663 34.5757 20.415 34.7368 20.3809C34.9028 20.3467 35.0688 20.3076 35.2349 20.2637C34.7075 20.1611 34.3438 19.9512 34.1436 19.6338C34.0752 19.5215 34.041 19.4043 34.041 19.2822C34.041 19.1553 34.0654 19.0479 34.1143 18.96C34.1631 18.8721 34.251 18.7842 34.3779 18.6963C34.5049 18.6084 34.6807 18.5107 34.9053 18.4033L35.7769 17.9932C35.3179 17.9053 34.8882 17.6929 34.4878 17.356C33.936 16.8921 33.6602 16.2378 33.6602 15.3931C33.6602 14.5825 34.0166 13.8965 34.7295 13.335C35.3594 12.832 36.0527 12.5806 36.8096 12.5806C37.5664 12.5806 38.2207 12.7588 38.7725 13.1152C39.124 12.8711 39.7051 12.6978 40.5156 12.5952L40.7134 12.8223L40.3691 13.8257H39.417ZM34.4658 21.6333C34.4365 21.77 34.4219 21.9409 34.4219 22.146C34.4219 22.3511 34.4976 22.5391 34.6489 22.71C34.8003 22.8857 34.9932 23.02 35.2275 23.1128C35.6084 23.2642 36.0381 23.3398 36.5166 23.3398C37 23.3398 37.3687 23.3008 37.6226 23.2227C37.8765 23.1445 38.0986 23.0322 38.2891 22.8857C38.7188 22.5635 38.9336 22.1436 38.9336 21.626C38.9336 20.9766 38.4746 20.6104 37.5566 20.5273C37.2881 20.5029 37.0073 20.4907 36.7144 20.4907C35.8745 20.4907 35.208 20.7373 34.7148 21.2305C34.5781 21.3672 34.4951 21.5015 34.4658 21.6333ZM35.0225 14.3164C34.9199 14.5557 34.8687 14.8486 34.8687 15.1953C34.8687 15.5371 34.9199 15.835 35.0225 16.0889C35.125 16.3428 35.2642 16.5576 35.4399 16.7334C35.7964 17.0898 36.2554 17.2681 36.8169 17.2681C37.5493 17.2681 38.0718 16.9604 38.3843 16.3452C38.5015 16.1157 38.5601 15.8325 38.5601 15.4956C38.5601 15.1538 38.5088 14.8511 38.4062 14.5874C38.3037 14.3237 38.1646 14.0991 37.9888 13.9136C37.6226 13.5278 37.1636 13.335 36.6118 13.335C35.8306 13.335 35.3008 13.6621 35.0225 14.3164ZM46.7518 13.8257C46.9812 14.1968 47.096 14.6582 47.096 15.21C47.096 15.9863 46.7054 16.6748 45.9241 17.2754C45.5823 17.5391 45.1819 17.7588 44.7229 17.9346L43.6023 18.3594C43.0652 18.5596 42.7601 18.6987 42.6868 18.7769C42.6185 18.8501 42.5843 18.9111 42.5843 18.96C42.5843 19.0039 42.6087 19.0479 42.6575 19.0918C42.7063 19.1357 42.7869 19.1772 42.8992 19.2163C43.1678 19.3091 43.5437 19.3555 44.0271 19.3555C44.5105 19.3555 44.9622 19.3823 45.3821 19.436C45.8021 19.4849 46.1731 19.5801 46.4954 19.7217C47.1985 20.0391 47.5501 20.5811 47.5501 21.3477C47.5501 21.8652 47.3475 22.3462 46.9422 22.7905C46.3807 23.4009 45.5848 23.8086 44.5545 24.0137C44.2469 24.0723 43.9075 24.1016 43.5364 24.1016C43.1653 24.1016 42.7869 24.0625 42.4012 23.9844C42.0154 23.9062 41.6785 23.7842 41.3904 23.6182C40.7801 23.2715 40.4749 22.7515 40.4749 22.0581C40.4749 21.521 40.702 21.1084 41.1561 20.8203L41.6321 20.5347C41.764 20.4663 41.9104 20.415 42.0716 20.3809C42.2376 20.3467 42.4036 20.3076 42.5696 20.2637C42.0423 20.1611 41.6785 19.9512 41.4783 19.6338C41.41 19.5215 41.3758 19.4043 41.3758 19.2822C41.3758 19.1553 41.4002 19.0479 41.449 18.96C41.4979 18.8721 41.5857 18.7842 41.7127 18.6963C41.8396 18.6084 42.0154 18.5107 42.24 18.4033L43.1116 17.9932C42.6526 17.9053 42.2229 17.6929 41.8226 17.356C41.2708 16.8921 40.9949 16.2378 40.9949 15.3931C40.9949 14.5825 41.3514 13.8965 42.0643 13.335C42.6941 12.832 43.3875 12.5806 44.1443 12.5806C44.9012 12.5806 45.5555 12.7588 46.1072 13.1152C46.4588 12.8711 47.0398 12.6978 47.8504 12.5952L48.0481 12.8223L47.7039 13.8257H46.7518ZM41.8006 21.6333C41.7713 21.77 41.7566 21.9409 41.7566 22.146C41.7566 22.3511 41.8323 22.5391 41.9837 22.71C42.1351 22.8857 42.3279 23.02 42.5623 23.1128C42.9432 23.2642 43.3729 23.3398 43.8514 23.3398C44.3348 23.3398 44.7034 23.3008 44.9573 23.2227C45.2112 23.1445 45.4334 23.0322 45.6238 22.8857C46.0535 22.5635 46.2684 22.1436 46.2684 21.626C46.2684 20.9766 45.8094 20.6104 44.8914 20.5273C44.6229 20.5029 44.3421 20.4907 44.0491 20.4907C43.2093 20.4907 42.5428 20.7373 42.0496 21.2305C41.9129 21.3672 41.8299 21.5015 41.8006 21.6333ZM42.3572 14.3164C42.2547 14.5557 42.2034 14.8486 42.2034 15.1953C42.2034 15.5371 42.2547 15.835 42.3572 16.0889C42.4598 16.3428 42.5989 16.5576 42.7747 16.7334C43.1312 17.0898 43.5901 17.2681 44.1517 17.2681C44.8841 17.2681 45.4065 16.9604 45.719 16.3452C45.8362 16.1157 45.8948 15.8325 45.8948 15.4956C45.8948 15.1538 45.8436 14.8511 45.741 14.5874C45.6385 14.3237 45.4993 14.0991 45.3235 13.9136C44.9573 13.5278 44.4983 13.335 43.9466 13.335C43.1653 13.335 42.6355 13.6621 42.3572 14.3164ZM51.3458 19.1943L52.9352 19.3921V20H49.1485V19.3921L50.1593 19.2236V13.584H49.1485V12.9761L50.1593 12.7563V11.2036C50.1593 10.437 50.3961 9.70703 50.8697 9.01367C51.4117 8.21777 52.1222 7.81982 53.0011 7.81982C53.5626 7.81982 54.0216 7.93213 54.378 8.15674C54.5343 8.25439 54.6515 8.3667 54.7296 8.49365L54.2315 9.79004H53.7555C53.7555 9.30176 53.5846 8.96973 53.2428 8.79395C53.1207 8.72559 52.9645 8.69141 52.774 8.69141C52.5885 8.69141 52.4078 8.73291 52.232 8.81592C52.0611 8.89404 51.9098 9.01611 51.7779 9.18213C51.4898 9.54346 51.3458 10.0488 51.3458 10.6982V12.7563H53.5724V13.6133H51.3458V19.1943ZM56.7379 19.2236L57.6754 19.3921V20H54.5992V19.3921L55.5514 19.2236V13.8916L54.5992 13.7231V13.1152L56.7379 12.5806V19.2236ZM55.5074 10.3467C55.4293 10.2588 55.3658 10.1611 55.317 10.0537C55.2682 9.94629 55.2437 9.84131 55.2437 9.73877C55.2437 9.63135 55.2682 9.52637 55.317 9.42383C55.3658 9.31641 55.4293 9.21875 55.5074 9.13086C55.6881 8.93555 55.8517 8.83789 55.9981 8.83789C56.1495 8.83789 56.2765 8.86475 56.379 8.91846C56.4864 8.97217 56.5816 9.04297 56.6646 9.13086C56.8453 9.33105 56.9356 9.50928 56.9356 9.66553C56.9356 9.81689 56.9088 9.94629 56.8551 10.0537C56.8062 10.1611 56.7428 10.2588 56.6646 10.3467C56.4791 10.5371 56.3082 10.6323 56.152 10.6323C56.0006 10.6323 55.8761 10.6055 55.7784 10.5518C55.6808 10.498 55.5904 10.4297 55.5074 10.3467ZM59.2428 13.8916L58.3053 13.7231V13.1152L60.4293 12.5806V14.4482C61.5523 13.2031 62.3971 12.5806 62.9635 12.5806C63.4273 12.5806 63.8546 12.7661 64.2452 13.1372L63.8644 14.3237H63.5201C63.5201 14.0845 63.337 13.9062 62.9708 13.7891C62.8683 13.7598 62.7657 13.7451 62.6632 13.7451C62.1456 13.7451 61.401 14.2651 60.4293 15.3052V19.2236L61.8795 19.3921V20H58.3053V19.3921L59.2428 19.2236V13.8916ZM65.055 17.8613C65.055 18.8818 65.68 19.3921 66.93 19.3921C67.4036 19.3921 67.782 19.2871 68.0652 19.0771C68.324 18.8867 68.4534 18.6475 68.4534 18.3594C68.4534 18.0566 68.3777 17.8223 68.2264 17.6562C67.9285 17.3291 67.4964 17.0679 66.93 16.8726C66.3685 16.6772 65.9461 16.4917 65.6629 16.3159C65.3846 16.1353 65.1648 15.9473 65.0037 15.752C64.7254 15.4199 64.5862 15.0635 64.5862 14.6826C64.5862 14.2969 64.657 13.9819 64.7986 13.7378C64.9451 13.4937 65.1355 13.2861 65.3699 13.1152C65.868 12.7588 66.4441 12.5806 67.0984 12.5806C67.8846 12.5806 68.5706 12.7539 69.1565 13.1006L68.9881 14.5142H68.5926C68.5926 13.7476 68.0823 13.3643 67.0618 13.3643C66.6175 13.3643 66.2806 13.4521 66.0511 13.6279C65.8216 13.7988 65.7068 14.0137 65.7068 14.2725C65.7068 14.8438 66.344 15.3613 67.6185 15.8252C68.8099 16.2646 69.4813 16.8384 69.6326 17.5464C69.6717 17.7466 69.6912 17.9858 69.6912 18.2642C69.6912 18.5376 69.6009 18.8037 69.4202 19.0625C69.2444 19.3213 69.0223 19.5312 68.7537 19.6924C68.2313 20.0098 67.6282 20.1685 66.9446 20.1685C66.2757 20.1685 65.6507 20.0391 65.0696 19.7803C64.8108 19.668 64.5862 19.5386 64.3958 19.3921L64.6741 17.8613H65.055ZM72.031 17.7588C72.031 18.7354 72.4265 19.2236 73.2176 19.2236C73.6326 19.2236 74.0354 19.0527 74.4261 18.7109L74.8216 19.1943C74.4065 19.5361 74.0232 19.7852 73.6717 19.9414C73.3201 20.0928 73.01 20.1685 72.7415 20.1685C72.4729 20.1685 72.2117 20.1099 71.9578 19.9927C71.7088 19.8755 71.5013 19.707 71.3352 19.4873C71.0081 19.0625 70.8445 18.4595 70.8445 17.6782V13.6133H69.9143V12.9761L70.8445 12.7563V11.7749L71.7088 10.9106H72.031V12.7563H74.448V13.6133H72.031V17.7588Z" fill="black"/>
<path d="M8.82969 0.312563C8.2857 0.366704 7.48906 0.678656 6.90898 1.06022C5.91383 1.71506 4.92125 2.82366 4.06531 4.22873C3.97766 4.37311 3.89773 4.51233 3.89 4.53553C3.87969 4.56131 3.81008 4.68764 3.73273 4.81655C3.42078 5.34506 2.85101 6.53358 2.65508 7.06209C2.60094 7.20389 2.54937 7.3328 2.53648 7.34827C2.50039 7.39209 2.24258 8.09592 2.05695 8.64764C1.88422 9.16842 1.58516 10.2255 1.53102 10.509C1.51297 10.5993 1.48461 10.7359 1.46398 10.8133C1.37117 11.1716 1.32734 11.3882 1.26289 11.8187C1.23969 11.9528 1.21391 12.0972 1.19844 12.141C1.15461 12.288 0.994765 13.5306 0.953515 14.0617C0.948359 14.1545 0.927734 14.4201 0.909687 14.6547C0.860703 15.2708 0.868437 16.9518 0.922578 17.6582C0.997343 18.6611 1.09016 19.4062 1.23453 20.1848C1.26031 20.3111 1.3093 20.5792 1.34539 20.7777C1.38148 20.9762 1.42531 21.1748 1.44336 21.2186C1.46141 21.2624 1.48461 21.3501 1.49492 21.4119C1.53875 21.7007 1.79914 22.5463 2.01055 23.0851C2.14977 23.4409 2.49266 24.1319 2.7118 24.498C3.4543 25.7355 4.49328 26.7435 5.85195 27.5376C6.79039 28.0893 7.69273 28.4244 8.79359 28.6333C9.0643 28.6848 9.18031 28.69 9.80937 28.6926C10.5493 28.6926 10.7452 28.6719 11.3176 28.5482C13.0965 28.1563 14.6511 27.0864 15.8216 25.4441C16.9198 23.8998 17.6959 21.8554 17.9691 19.7851C17.9769 19.7207 17.9949 19.5866 18.0078 19.4887C18.0336 19.3005 18.0362 19.2721 18.0903 18.5734C18.1316 18.0243 18.1316 16.1938 18.0903 15.6344C18.0723 15.3998 18.0516 15.1265 18.0439 15.0285C17.9253 13.4172 17.5824 11.5687 17.0848 9.84647C16.363 7.36116 15.6205 5.58999 14.6562 4.06889C13.8648 2.82108 12.8928 1.7692 11.9621 1.15045C11.3073 0.71475 10.5235 0.407954 9.85578 0.320297C9.67789 0.297094 9.02305 0.291938 8.82969 0.312563ZM9.46133 2.02186C11.3691 2.16108 12.8412 3.27483 14.0401 5.48428C14.3237 6.00506 14.3159 5.98959 14.6588 6.83006C14.9734 7.6035 15.4477 9.14522 15.6076 9.91092C15.6411 10.0605 15.6927 10.2976 15.7262 10.4394C15.7571 10.5812 15.7984 10.7772 15.8138 10.8777C15.8293 10.9757 15.8602 11.151 15.8809 11.2644C15.9866 11.8394 16.0948 12.5509 16.2031 13.3914C16.2598 13.8168 16.3578 14.8351 16.3939 15.3637C16.4738 16.4826 16.4996 17.1374 16.4996 17.916C16.4996 18.2976 16.4584 18.4497 16.3295 18.558C16.1516 18.7075 15.886 18.6662 15.4168 18.4187C15.1126 18.2563 15.0249 18.2228 14.3984 18.0449C13.3543 17.7458 12.2199 17.5241 11.1758 17.4133C10.7452 17.3669 9.68047 17.3101 9.2525 17.3101C7.8732 17.3101 6.48617 17.4777 5.19453 17.8C4.59641 17.9495 4.23031 18.0655 3.41562 18.3569C3.05984 18.4832 2.84328 18.4935 2.66281 18.3852C2.41016 18.2383 2.33539 18.0372 2.30445 17.4184C2.27352 16.7816 2.33797 15.3301 2.42305 14.7578C2.4282 14.7088 2.44109 14.6031 2.44883 14.5258C2.45656 14.4484 2.47461 14.2963 2.49008 14.1906C2.50297 14.0849 2.52101 13.9612 2.52617 13.9199C2.63445 13.1052 2.82266 12.0714 3.03922 11.1098C3.91836 7.22709 5.3389 4.21327 6.90898 2.90358C7.52515 2.38795 8.16969 2.09147 8.8168 2.02702C8.9457 2.01413 9.06172 2.00123 9.07461 1.99866C9.09008 1.99866 9.26281 2.00897 9.46133 2.02186Z" fill="#3CDEF4"/>
</svg>
