<svg version="1.1" id="Layer_1" xmlns="http://www.w3.org/2000/svg" xmlns:xlink="http://www.w3.org/1999/xlink" x="0px" y="0px"
	 viewBox="0 0 100 100" fill="#3FE8FF" >
<path d="M15,17c0-1.1,0.9-2,2-2h12c1.1,0,2,0.9,2,2c0,1.1-0.9,2-2,2H17C15.9,19,15,18.1,15,17z M17,29h20c1.1,0,2-0.9,2-2
	c0-1.1-0.9-2-2-2H17c-1.1,0-2,0.9-2,2C15,28.1,15.9,29,17,29z M27,81H17c-1.1,0-2,0.9-2,2c0,1.1,0.9,2,2,2h10c1.1,0,2-0.9,2-2
	C29,81.9,28.1,81,27,81z M93.2,44.2c-1,2.3-2.5,4.4-4.3,6.3L73,66.4V89c0,3.3-2.7,6-6,6H11c-3.3,0-6-2.7-6-6V11c0-3.3,2.7-6,6-6h56
	c3.3,0,6,2.7,6,6v19c0.3-0.2,0.7-0.5,1-0.7c5.6-3.6,12.5-4.3,18.5-1.9c0.5,0.2,0.9,0.6,1.1,1.1C95.6,33.5,95.5,39.2,93.2,44.2z
	 M69,70.4l-5.7,5.7C60.7,78.7,57.4,80,54,80c-2.7,0-5.4-0.9-7.7-2.5l-6.7,6.7c-0.4,0.4-0.9,0.6-1.4,0.6c-0.5,0-1-0.2-1.4-0.6
	c-0.8-0.8-0.8-2,0-2.8l6.7-6.7c-3.7-5.1-3.3-12.3,1.3-16.9L69,33.6V11c0-1.1-0.9-2-2-2H11c-1.1,0-2,0.9-2,2v78c0,1.1,0.9,2,2,2h56
	c1.1,0,2-0.9,2-2V70.4z M90.2,30.8c-4.6-1.5-9.8-0.9-14.1,1.9c-1,0.6-2,1.4-2.8,2.3L47.7,60.6c-1.7,1.7-2.6,4-2.6,6.4
	c0,1.7,0.5,3.4,1.4,4.8l7.8-7.8c0.8-0.8,2-0.8,2.8,0c0.8,0.8,0.8,2,0,2.8l-7.8,7.8c3.5,2.2,8.1,1.8,11.2-1.2l25.7-25.7
	c1.5-1.5,2.7-3.2,3.5-5.1C91.3,38.8,91.5,34.6,90.2,30.8z"  />
</svg>
