<?xml version="1.0" encoding="utf-8"?>
<!-- Generator: Adobe Illustrator 23.0.1, SVG Export Plug-In . SVG Version: 6.00 Build 0)  -->
<svg version="1.1" id="Layer_1" xmlns="http://www.w3.org/2000/svg" xmlns:xlink="http://www.w3.org/1999/xlink" x="0px" y="0px"
	 viewBox="0 0 100 100" style="enable-background:new 0 0 100 100;" xml:space="preserve" fill="#3FE8FF">
<path d="M87,25h-0.5L51,5.3c-0.6-0.3-1.3-0.3-1.9,0L13.5,25H13c-4.4,0-8,3.6-8,8v6v6c0,4.4,3.6,8,8,8v26c-4.4,0-8,3.6-8,8s3.6,8,8,8
	h74c4.4,0,8-3.6,8-8s-3.6-8-8-8V53c4.4,0,8-3.6,8-8v-6v-6C95,28.6,91.4,25,87,25z M50,9.3L78.3,25H21.7L50,9.3z M9,33
	c0-2.2,1.8-4,4-4h1h72h1c2.2,0,4,1.8,4,4v4H73H61H39H27H9V33z M71,51v28H58V52.4c2.9-1.2,5-4.1,5-7.4v-4h8V51z M29,79V51V41h8v4
	c0,3.3,2.1,6.2,5,7.4V79H29z M55,49H45c-2.2,0-4-1.8-4-4v-4h18v4C59,47.2,57.2,49,55,49z M46,53h8v26h-8V53z M9,45v-4h16v8H15h-2
	C10.8,49,9,47.2,9,45z M17,53h8v26h-8V53z M91,87c0,2.2-1.8,4-4,4H13c-2.2,0-4-1.8-4-4s1.8-4,4-4h2h12h17h12h17h12h2
	C89.2,83,91,84.8,91,87z M83,79h-8V53h8V79z M91,45c0,2.2-1.8,4-4,4h-2H75v-8h16V45z"/>
</svg>
